REM DIRINDEX 1\8,1\2\11,1\3\12,1\3\14,1\5\15,1\5\16,1\6\17,1\6\18,1\4\19,1\4\20,1\4\21,1\4\22,1\7\23,1\7\24,1\7\25,1\2\9\26,1\2\9\27,1\2\10\28,1\2\10\29,1\2\10\30,1\2\10\31,1\2\10\32,1\3\13\33,1\3\13\34,1\3\13\35
REM DIRNAME cjc123,folder01,folder02,folder03,folder04,folder05,folder06,folder07,folder08,folder09,folder10,folder11,folder12,folder13,folder14,folder15,folder16,folder17,folder18,folder19,folder20,folder21,folder22,folder23,folder24,folder25,folder26,folder27,folder28,folder29,folder30,folder31,folder32,folder33,folder34
TITLE ""
FILE "82 082_UNIT2_SET1.mp3" MP3
  TRACK 01 AUDIO
    TITLE "14:cjc123_7503"
    INDEX 01 00:00:00
  TRACK 02 AUDIO
    TITLE "0:"
    INDEX 01 00:02:47
  TRACK 03 AUDIO
    TITLE "33:cjc123_7504"
    INDEX 01 00:03:29
  TRACK 04 AUDIO
    TITLE "0:"
    INDEX 01 00:04:38
  TRACK 05 AUDIO
    TITLE "34:cjc123_7505"
    INDEX 01 00:04:52
  TRACK 06 AUDIO
    TITLE "0:"
    INDEX 01 00:05:54
  TRACK 07 AUDIO
    TITLE "35:cjc123_7506"
    INDEX 01 00:06:28
  TRACK 08 AUDIO
    TITLE "0:"
    INDEX 01 00:09:63
  TRACK 09 AUDIO
    TITLE "33:cjc123_7507"
    INDEX 01 00:10:43
  TRACK 10 AUDIO
    TITLE "0:"
    INDEX 01 00:11:56
  TRACK 11 AUDIO
    TITLE "34:cjc123_7508"
    INDEX 01 00:11:72
  TRACK 12 AUDIO
    TITLE "0:"
    INDEX 01 00:12:71
  TRACK 13 AUDIO
    TITLE "35:cjc123_7509"
    INDEX 01 00:13:51
  TRACK 14 AUDIO
    TITLE "0:"
    INDEX 01 00:17:39
  TRACK 15 AUDIO
    TITLE "33:cjc123_7510"
    INDEX 01 00:18:21
  TRACK 16 AUDIO
    TITLE "0:"
    INDEX 01 00:19:09
  TRACK 17 AUDIO
    TITLE "34:cjc123_7511"
    INDEX 01 00:19:34
  TRACK 18 AUDIO
    TITLE "0:"
    INDEX 01 00:20:24
  TRACK 19 AUDIO
    TITLE "35:cjc123_7512"
    INDEX 01 00:20:73
  TRACK 20 AUDIO
    TITLE "0:"
    INDEX 01 00:23:53
  TRACK 21 AUDIO
    TITLE "33:cjc123_7513"
    INDEX 01 00:24:25
  TRACK 22 AUDIO
    TITLE "0:"
    INDEX 01 00:25:27
  TRACK 23 AUDIO
    TITLE "34:cjc123_7514"
    INDEX 01 00:25:50
  TRACK 24 AUDIO
    TITLE "0:"
    INDEX 01 00:26:48
  TRACK 25 AUDIO
    TITLE "35:cjc123_7515"
    INDEX 01 00:27:22
  TRACK 26 AUDIO
    TITLE "0:"
    INDEX 01 00:29:48
  TRACK 27 AUDIO
    TITLE "33:cjc123_7516"
    INDEX 01 00:30:34
  TRACK 28 AUDIO
    TITLE "0:"
    INDEX 01 00:32:09
  TRACK 29 AUDIO
    TITLE "34:cjc123_7517"
    INDEX 01 00:32:50
  TRACK 30 AUDIO
    TITLE "0:"
    INDEX 01 00:34:20
  TRACK 31 AUDIO
    TITLE "35:cjc123_7518"
    INDEX 01 00:34:69
  TRACK 32 AUDIO
    TITLE "0:"
    INDEX 01 00:38:18
  TRACK 33 AUDIO
    TITLE "33:cjc123_7519"
    INDEX 01 00:38:73
  TRACK 34 AUDIO
    TITLE "0:"
    INDEX 01 00:40:09
  TRACK 35 AUDIO
    TITLE "34:cjc123_7520"
    INDEX 01 00:40:21
  TRACK 36 AUDIO
    TITLE "0:"
    INDEX 01 00:41:26
  TRACK 37 AUDIO
    TITLE "35:cjc123_7521"
    INDEX 01 00:42:02
  TRACK 38 AUDIO
    TITLE "0:"
    INDEX 01 00:45:35
  TRACK 39 AUDIO
    TITLE "33:cjc123_7522"
    INDEX 01 00:46:07
  TRACK 40 AUDIO
    TITLE "0:"
    INDEX 01 00:47:09
  TRACK 41 AUDIO
    TITLE "34:cjc123_7523"
    INDEX 01 00:47:23
  TRACK 42 AUDIO
    TITLE "0:"
    INDEX 01 00:48:24
  TRACK 43 AUDIO
    TITLE "35:cjc123_7524"
    INDEX 01 00:48:73
  TRACK 44 AUDIO
    TITLE "0:"
    INDEX 01 00:52:43
  TRACK 45 AUDIO
    TITLE "33:cjc123_7525"
    INDEX 01 00:53:37
  TRACK 46 AUDIO
    TITLE "0:"
    INDEX 01 00:54:30
  TRACK 47 AUDIO
    TITLE "34:cjc123_7526"
    INDEX 01 00:54:46
  TRACK 48 AUDIO
    TITLE "0:"
    INDEX 01 00:55:38
  TRACK 49 AUDIO
    TITLE "35:cjc123_7527"
    INDEX 01 00:56:18
  TRACK 50 AUDIO
    TITLE "0:"
    INDEX 01 00:59:53
  TRACK 51 AUDIO
    TITLE "33:cjc123_7528"
    INDEX 01 01:00:29
  TRACK 52 AUDIO
    TITLE "0:"
    INDEX 01 01:01:44
  TRACK 53 AUDIO
    TITLE "34:cjc123_7529"
    INDEX 01 01:01:62
  TRACK 54 AUDIO
    TITLE "0:"
    INDEX 01 01:03:00
  TRACK 55 AUDIO
    TITLE "35:cjc123_7530"
    INDEX 01 01:03:49
  TRACK 56 AUDIO
    TITLE "0:"
    INDEX 01 01:07:47
  TRACK 57 AUDIO
    TITLE "33:cjc123_7531"
    INDEX 01 01:08:21
  TRACK 58 AUDIO
    TITLE "0:"
    INDEX 01 01:09:30
  TRACK 59 AUDIO
    TITLE "34:cjc123_7532"
    INDEX 01 01:09:48
  TRACK 60 AUDIO
    TITLE "0:"
    INDEX 01 01:10:51
  TRACK 61 AUDIO
    TITLE "35:cjc123_7533"
    INDEX 01 01:11:35
  TRACK 62 AUDIO
    TITLE "0:"
    INDEX 01 01:15:29
  TRACK 63 AUDIO
    TITLE "33:cjc123_7534"
    INDEX 01 01:16:11
  TRACK 64 AUDIO
    TITLE "0:"
    INDEX 01 01:17:24
  TRACK 65 AUDIO
    TITLE "34:cjc123_7535"
    INDEX 01 01:17:45
  TRACK 66 AUDIO
    TITLE "0:"
    INDEX 01 01:18:51
  TRACK 67 AUDIO
    TITLE "35:cjc123_7536"
    INDEX 01 01:19:30
  TRACK 68 AUDIO
    TITLE "0:"
    INDEX 01 01:23:11
  TRACK 69 AUDIO
    TITLE "33:cjc123_7537"
    INDEX 01 01:23:65
  TRACK 70 AUDIO
    TITLE "0:"
    INDEX 01 01:25:15
  TRACK 71 AUDIO
    TITLE "34:cjc123_7538"
    INDEX 01 01:25:29
  TRACK 72 AUDIO
    TITLE "0:"
    INDEX 01 01:26:42
  TRACK 73 AUDIO
    TITLE "35:cjc123_7539"
    INDEX 01 01:27:16
  TRACK 74 AUDIO
    TITLE "0:"
    INDEX 01 01:31:02
  TRACK 75 AUDIO
    TITLE "33:cjc123_7540"
    INDEX 01 01:31:47
  TRACK 76 AUDIO
    TITLE "0:"
    INDEX 01 01:32:53
  TRACK 77 AUDIO
    TITLE "34:cjc123_7541"
    INDEX 01 01:32:68
  TRACK 78 AUDIO
    TITLE "0:"
    INDEX 01 01:33:74
  TRACK 79 AUDIO
    TITLE "35:cjc123_7542"
    INDEX 01 01:34:46
  TRACK 80 AUDIO
    TITLE "0:"
    INDEX 01 01:38:32
  TRACK 81 AUDIO
    TITLE "33:cjc123_7543"
    INDEX 01 01:39:04
  TRACK 82 AUDIO
    TITLE "0:"
    INDEX 01 01:40:23
  TRACK 83 AUDIO
    TITLE "34:cjc123_7544"
    INDEX 01 01:40:38
  TRACK 84 AUDIO
    TITLE "0:"
    INDEX 01 01:41:54
  TRACK 85 AUDIO
    TITLE "35:cjc123_7545"
    INDEX 01 01:42:30
  TRACK 86 AUDIO
    TITLE "0:"
    INDEX 01 01:45:53
  TRACK 87 AUDIO
    TITLE "33:cjc123_7546"
    INDEX 01 01:46:27
  TRACK 88 AUDIO
    TITLE "0:"
    INDEX 01 01:47:27
  TRACK 89 AUDIO
    TITLE "34:cjc123_7547"
    INDEX 01 01:47:44
  TRACK 90 AUDIO
    TITLE "0:"
    INDEX 01 01:48:48
  TRACK 91 AUDIO
    TITLE "35:cjc123_7548"
    INDEX 01 01:49:24
  TRACK 92 AUDIO
    TITLE "0:"
    INDEX 01 01:53:41
